<svg xmlns="http://www.w3.org/2000/svg" enable-background="new 0 0 48 48" viewBox="0 0 48 48"><path d="M40.9,25c0.4,1.4,1.7,2.4,3.2,2.4c1.9,0,3.4-1.5,3.4-3.4s-1.5-3.4-3.4-3.4c-1.5,0-2.8,1-3.2,2.4h-0.6
	c-0.2-3.5-1.6-7-4.1-9.8l1.6-1.6c0.7,0.4,1.5,0.7,2.3,0.7c1.2,0,2.3-0.5,3.1-1.3c1.7-1.7,1.7-4.5,0-6.2c-1.7-1.7-4.5-1.7-6.2,0
	c-1.5,1.5-1.7,3.7-0.6,5.4l-1.7,1.7c-0.5-0.4-0.9-0.8-1.4-1.1c0,1.8-1.4,3.2-3.2,3.2c-0.3,0-0.6-0.1-0.9-0.1l-2,2.5L25.7,15l1.9-2.4
	C27.2,12,27,11.3,27,10.6c0-1,0.5-1.9,1.1-2.4c-1-0.3-2.1-0.4-3.1-0.5V7.1c1.4-0.4,2.4-1.7,2.4-3.2c0-1.9-1.5-3.4-3.4-3.4
	c-1.9,0-3.4,1.5-3.4,3.4c0,1.5,1,2.8,2.4,3.2v0.6c-3.6,0.2-7.1,1.6-9.8,4.1l-1.6-1.6c1.1-1.7,0.9-4-0.6-5.4C9.2,3,6.4,3,4.7,4.7
	C3,6.4,3,9.2,4.7,10.9c0.9,0.9,2,1.3,3.1,1.3c0.8,0,1.6-0.2,2.3-0.7l1.6,1.6C9.3,16,7.9,19.5,7.7,23H7.1c-0.4-1.4-1.7-2.4-3.2-2.4
	c-1.9,0-3.4,1.5-3.4,3.4s1.5,3.4,3.4,3.4c1.5,0,2.8-1,3.2-2.4h0.6c0.2,3.5,1.6,7,4.1,9.8l-1.6,1.6c-0.7-0.4-1.5-0.7-2.3-0.7
	c-1.2,0-2.3,0.5-3.1,1.3c-1.7,1.7-1.7,4.5,0,6.2c0.9,0.9,2,1.3,3.1,1.3s2.3-0.4,3.1-1.3c1.5-1.5,1.7-3.7,0.6-5.4l1.6-1.6
	c2.8,2.5,6.3,3.8,9.8,4.1v0.6c-1.4,0.4-2.4,1.7-2.4,3.2c0,1.9,1.5,3.4,3.4,3.4c1.9,0,3.4-1.5,3.4-3.4c0-1.5-1-2.8-2.4-3.2v-0.6
	c3.5-0.2,7-1.6,9.8-4.1l1.6,1.6c-1.1,1.7-0.9,4,0.6,5.4c0.8,0.8,1.9,1.3,3.1,1.3s2.3-0.5,3.1-1.3c1.7-1.7,1.7-4.5,0-6.2
	c-1.5-1.5-3.7-1.7-5.4-0.6l-1.6-1.6c2.5-2.8,3.8-6.3,4.1-9.8H40.9z M17.8,25.7c0,1.6-1.3,2.9-2.9,2.9S12,27.2,12,25.7
	c0-1.6,1.3-2.9,2.9-2.9c0.8,0,1.6,0.3,2.1,0.9l3.4-1.1l0.6,1.9L17.8,25.7C17.7,25.6,17.8,25.6,17.8,25.7z M21.4,19.5l-1-2.1
	c-1.2,0-2.2-1-2.2-2.2c0-1.2,1-2.2,2.2-2.2c1.2,0,2.2,1,2.2,2.2c0,0.5-0.2,0.9-0.4,1.3l1,2.2L21.4,19.5z M30.8,34.4
	c-1.2,0-2.2-1-2.2-2.2c0-0.2,0-0.4,0.1-0.6l-1.9-2.3l1.6-1.3l1.8,2.1c0.2-0.1,0.5-0.1,0.7-0.1c1.2,0,2.2,1,2.2,2.2
	C33,33.4,32,34.4,30.8,34.4z M30.7,24.6c-1.5,0-2.7-0.9-3.3-2.2h-3.5v-2h3.3c0.3-1.7,1.8-3,3.5-3c2,0,3.6,1.6,3.6,3.6
	C34.3,23,32.7,24.6,30.7,24.6z"/></svg>